<?xml version="1.0" standalone="no"?>
<!DOCTYPE svg PUBLIC "-//W3C//DTD SVG 20010904//EN"
 "http://www.w3.org/TR/2001/REC-SVG-20010904/DTD/svg10.dtd">
<svg version="1.0" xmlns="http://www.w3.org/2000/svg"
 width="685" height="168" preserveAspectRatio="xMidYMid meet">
<metadata>
Created by potrace 1.10, written by Peter Selinger 2001-2011
</metadata>
<g transform="translate(0.000000,300.000000) scale(0.100000,-0.100000)"
fill="#000000" stroke="none">
<path d="M1726 1827 l-39 -33 57 -16 c63 -17 62 -19 32 54 l-11 28 -39 -33z"/>
<path d="M1876 1795 c-27 -19 -51 -37 -54 -40 -3 -3 5 -16 18 -30 l24 -25 33
62 c18 34 31 63 30 64 -2 2 -25 -12 -51 -31z"/>
<path d="M1332 1761 c-21 -18 -52 -31 -93 -39 -34 -6 -63 -13 -64 -14 -1 -2
-25 -43 -54 -91 l-53 -88 25 -67 25 -67 63 -11 c40 -6 89 -24 130 -47 64 -36
66 -36 126 -27 59 10 62 9 129 -28 57 -31 74 -46 96 -87 23 -43 62 -74 76 -61
2 3 -1 19 -7 37 -10 30 -8 34 39 86 28 30 50 59 50 64 0 5 -7 26 -15 46 -8 20
-14 38 -12 40 3 2 16 -1 31 -7 52 -19 56 -15 56 53 l0 62 -116 24 c-63 13
-118 20 -121 17 -4 -3 1 -6 10 -6 10 0 17 -6 17 -12 0 -13 -15 -116 -25 -173
l-5 -30 16 24 c9 13 19 42 20 65 7 85 10 88 59 84 25 -2 45 0 45 4 0 5 5 8 11
8 6 0 9 -9 6 -20 -4 -15 2 -24 24 -35 35 -19 38 -35 5 -35 -40 0 -68 -57 -44
-87 7 -9 7 -13 -2 -13 -7 0 -10 -7 -7 -15 7 -17 -40 -58 -57 -48 -8 5 -8 3 1
-8 9 -11 7 -19 -7 -36 l-18 -23 -18 28 c-28 42 -43 53 -131 96 -43 22 -58 24
-95 18 -59 -11 -68 -10 -144 32 -36 20 -69 34 -73 32 -4 -3 -25 0 -47 5 -27 7
-45 19 -56 40 -17 29 -17 29 15 52 18 13 42 31 55 39 25 17 22 22 -20 32 -24
6 -29 2 -42 -28 -19 -45 -42 -60 -32 -20 8 32 47 94 57 91 4 -1 21 17 38 41
23 30 38 42 57 42 14 0 53 14 87 31 56 28 69 30 132 25 69 -4 105 -13 105 -24
0 -3 -6 -13 -14 -21 -13 -16 -32 -91 -22 -91 3 0 19 23 35 51 l28 50 21 -28
c19 -26 22 -27 39 -12 37 33 40 30 25 -25 -11 -41 -20 -55 -41 -63 -14 -6 -19
-11 -11 -12 8 0 48 17 88 40 l73 40 -19 26 c-14 19 -49 37 -128 64 -95 33
-121 38 -199 38 -84 0 -92 -2 -123 -28z"/>
<path d="M1796 1625 l-79 -43 59 -11 c33 -6 75 -16 93 -21 19 -5 36 -8 38 -7
5 5 -20 127 -26 126 -3 0 -41 -20 -85 -44z"/>
<path d="M1596 1636 c-30 -18 -49 -23 -80 -19 l-41 4 35 -17 c45 -23 46 -25
69 -119 10 -44 22 -89 26 -100 5 -16 5 -17 -4 -5 -5 8 -12 12 -15 9 -3 -3 5
-15 19 -27 14 -12 25 -19 25 -14 0 4 -14 60 -30 126 -17 65 -30 122 -30 127 0
5 16 15 35 23 19 8 35 20 35 25 0 14 1 15 -44 -13z"/>
<path d="M1320 1633 c-18 -8 -95 -63 -87 -63 6 0 107 58 116 66 6 6 -11 4 -29
-3z"/>
<path d="M1373 1628 c2 -7 12 -39 21 -72 10 -32 20 -56 23 -52 8 8 -30 136
-40 136 -5 0 -7 -6 -4 -12z"/>
</g>
</svg>
